<mxfile host="app.diagrams.net" modified="2023-03-13T16:24:03.275Z" agent="5.0 (Windows NT 10.0; Win64; x64) AppleWebKit/537.36 (KHTML, like Gecko) Chrome/110.0.0.0 Safari/537.36" etag="q4av8xEO1eil28kIWUaY" version="21.0.6" type="github">
  <diagram id="C5RBs43oDa-KdzZeNtuy" name="Page-1">
    <mxGraphModel dx="515" dy="3915" grid="1" gridSize="10" guides="1" tooltips="1" connect="1" arrows="1" fold="1" page="1" pageScale="1" pageWidth="827" pageHeight="1169" math="0" shadow="0">
      <root>
        <mxCell id="WIyWlLk6GJQsqaUBKTNV-0" />
        <mxCell id="WIyWlLk6GJQsqaUBKTNV-1" parent="WIyWlLk6GJQsqaUBKTNV-0" />
        <mxCell id="4SLkQNdMUHOu_BhptTHL-6" value="GameManager" style="swimlane;fontStyle=0;childLayout=stackLayout;horizontal=1;startSize=30;horizontalStack=0;resizeParent=1;resizeParentMax=0;resizeLast=0;collapsible=1;marginBottom=0;whiteSpace=wrap;html=1;fontSize=12;" parent="WIyWlLk6GJQsqaUBKTNV-1" vertex="1">
          <mxGeometry x="10" y="-2260" width="230" height="449" as="geometry">
            <mxRectangle x="10" y="-2260" width="60" height="30" as="alternateBounds" />
          </mxGeometry>
        </mxCell>
        <mxCell id="4SLkQNdMUHOu_BhptTHL-7" value="- _soundManager :&amp;nbsp;SoundManager" style="text;strokeColor=none;fillColor=none;align=left;verticalAlign=middle;spacingLeft=4;spacingRight=4;overflow=hidden;points=[[0,0.5],[1,0.5]];portConstraint=eastwest;rotatable=0;whiteSpace=wrap;html=1;" parent="4SLkQNdMUHOu_BhptTHL-6" vertex="1">
          <mxGeometry y="30" width="230" height="30" as="geometry" />
        </mxCell>
        <mxCell id="4SLkQNdMUHOu_BhptTHL-8" value="- _networkManager :&amp;nbsp;SoundManager" style="text;strokeColor=none;fillColor=none;align=left;verticalAlign=middle;spacingLeft=4;spacingRight=4;overflow=hidden;points=[[0,0.5],[1,0.5]];portConstraint=eastwest;rotatable=0;whiteSpace=wrap;html=1;" parent="4SLkQNdMUHOu_BhptTHL-6" vertex="1">
          <mxGeometry y="60" width="230" height="30" as="geometry" />
        </mxCell>
        <mxCell id="4SLkQNdMUHOu_BhptTHL-11" value="- _DBManager :&amp;nbsp;DBManager" style="text;strokeColor=none;fillColor=none;align=left;verticalAlign=middle;spacingLeft=4;spacingRight=4;overflow=hidden;points=[[0,0.5],[1,0.5]];portConstraint=eastwest;rotatable=0;whiteSpace=wrap;html=1;" parent="4SLkQNdMUHOu_BhptTHL-6" vertex="1">
          <mxGeometry y="90" width="230" height="30" as="geometry" />
        </mxCell>
        <mxCell id="4SLkQNdMUHOu_BhptTHL-12" value="- _poolingManager :&amp;nbsp;PoolManager" style="text;strokeColor=none;fillColor=none;align=left;verticalAlign=middle;spacingLeft=4;spacingRight=4;overflow=hidden;points=[[0,0.5],[1,0.5]];portConstraint=eastwest;rotatable=0;whiteSpace=wrap;html=1;" parent="4SLkQNdMUHOu_BhptTHL-6" vertex="1">
          <mxGeometry y="120" width="230" height="30" as="geometry" />
        </mxCell>
        <mxCell id="4SLkQNdMUHOu_BhptTHL-13" value="- _inputManager :&amp;nbsp;InputManager" style="text;strokeColor=none;fillColor=none;align=left;verticalAlign=middle;spacingLeft=4;spacingRight=4;overflow=hidden;points=[[0,0.5],[1,0.5]];portConstraint=eastwest;rotatable=0;whiteSpace=wrap;html=1;" parent="4SLkQNdMUHOu_BhptTHL-6" vertex="1">
          <mxGeometry y="150" width="230" height="30" as="geometry" />
        </mxCell>
        <mxCell id="mGLiB4h3JhUgNFAnYOu--10" value="- _uiManager :&amp;nbsp;UIManager" style="text;strokeColor=none;fillColor=none;align=left;verticalAlign=middle;spacingLeft=4;spacingRight=4;overflow=hidden;points=[[0,0.5],[1,0.5]];portConstraint=eastwest;rotatable=0;whiteSpace=wrap;html=1;" parent="4SLkQNdMUHOu_BhptTHL-6" vertex="1">
          <mxGeometry y="180" width="230" height="30" as="geometry" />
        </mxCell>
        <mxCell id="mGLiB4h3JhUgNFAnYOu--11" value="- _objManager" style="text;strokeColor=none;fillColor=none;align=left;verticalAlign=middle;spacingLeft=4;spacingRight=4;overflow=hidden;points=[[0,0.5],[1,0.5]];portConstraint=eastwest;rotatable=0;whiteSpace=wrap;html=1;" parent="4SLkQNdMUHOu_BhptTHL-6" vertex="1">
          <mxGeometry y="210" width="230" height="29" as="geometry" />
        </mxCell>
        <mxCell id="4SLkQNdMUHOu_BhptTHL-10" value="" style="endArrow=none;html=1;rounded=0;exitX=0.009;exitY=-0.01;exitDx=0;exitDy=0;exitPerimeter=0;entryX=0.991;entryY=0.015;entryDx=0;entryDy=0;entryPerimeter=0;" parent="4SLkQNdMUHOu_BhptTHL-6" edge="1">
          <mxGeometry width="50" height="50" relative="1" as="geometry">
            <mxPoint x="2.0699999999999363" y="238.69999999999982" as="sourcePoint" />
            <mxPoint x="227.93000000000006" y="239.44999999999982" as="targetPoint" />
            <Array as="points" />
          </mxGeometry>
        </mxCell>
        <mxCell id="7iNNCjcR42KBHL3_hYyn-4" value="+ SoundManager :&amp;nbsp;SoundManager" style="text;strokeColor=none;fillColor=none;align=left;verticalAlign=middle;spacingLeft=4;spacingRight=4;overflow=hidden;points=[[0,0.5],[1,0.5]];portConstraint=eastwest;rotatable=0;whiteSpace=wrap;html=1;" vertex="1" parent="4SLkQNdMUHOu_BhptTHL-6">
          <mxGeometry y="239" width="230" height="30" as="geometry" />
        </mxCell>
        <mxCell id="7iNNCjcR42KBHL3_hYyn-5" value="+ NetworkManager :&amp;nbsp;SoundManager" style="text;strokeColor=none;fillColor=none;align=left;verticalAlign=middle;spacingLeft=4;spacingRight=4;overflow=hidden;points=[[0,0.5],[1,0.5]];portConstraint=eastwest;rotatable=0;whiteSpace=wrap;html=1;" vertex="1" parent="4SLkQNdMUHOu_BhptTHL-6">
          <mxGeometry y="269" width="230" height="30" as="geometry" />
        </mxCell>
        <mxCell id="7iNNCjcR42KBHL3_hYyn-6" value="+ DBManager :&amp;nbsp;DBManager" style="text;strokeColor=none;fillColor=none;align=left;verticalAlign=middle;spacingLeft=4;spacingRight=4;overflow=hidden;points=[[0,0.5],[1,0.5]];portConstraint=eastwest;rotatable=0;whiteSpace=wrap;html=1;" vertex="1" parent="4SLkQNdMUHOu_BhptTHL-6">
          <mxGeometry y="299" width="230" height="30" as="geometry" />
        </mxCell>
        <mxCell id="7iNNCjcR42KBHL3_hYyn-10" value="+ ObjManager" style="text;strokeColor=none;fillColor=none;align=left;verticalAlign=middle;spacingLeft=4;spacingRight=4;overflow=hidden;points=[[0,0.5],[1,0.5]];portConstraint=eastwest;rotatable=0;whiteSpace=wrap;html=1;" vertex="1" parent="4SLkQNdMUHOu_BhptTHL-6">
          <mxGeometry y="329" width="230" height="30" as="geometry" />
        </mxCell>
        <mxCell id="7iNNCjcR42KBHL3_hYyn-9" value="+ UiManager :&amp;nbsp;UIManager" style="text;strokeColor=none;fillColor=none;align=left;verticalAlign=middle;spacingLeft=4;spacingRight=4;overflow=hidden;points=[[0,0.5],[1,0.5]];portConstraint=eastwest;rotatable=0;whiteSpace=wrap;html=1;" vertex="1" parent="4SLkQNdMUHOu_BhptTHL-6">
          <mxGeometry y="359" width="230" height="30" as="geometry" />
        </mxCell>
        <mxCell id="7iNNCjcR42KBHL3_hYyn-8" value="+ InputManager :&amp;nbsp;InputManager" style="text;strokeColor=none;fillColor=none;align=left;verticalAlign=middle;spacingLeft=4;spacingRight=4;overflow=hidden;points=[[0,0.5],[1,0.5]];portConstraint=eastwest;rotatable=0;whiteSpace=wrap;html=1;" vertex="1" parent="4SLkQNdMUHOu_BhptTHL-6">
          <mxGeometry y="389" width="230" height="30" as="geometry" />
        </mxCell>
        <mxCell id="7iNNCjcR42KBHL3_hYyn-7" value="+ PoolingManager :&amp;nbsp;PoolManager" style="text;strokeColor=none;fillColor=none;align=left;verticalAlign=middle;spacingLeft=4;spacingRight=4;overflow=hidden;points=[[0,0.5],[1,0.5]];portConstraint=eastwest;rotatable=0;whiteSpace=wrap;html=1;" vertex="1" parent="4SLkQNdMUHOu_BhptTHL-6">
          <mxGeometry y="419" width="230" height="30" as="geometry" />
        </mxCell>
        <mxCell id="4SLkQNdMUHOu_BhptTHL-14" value="SoundManager" style="swimlane;fontStyle=0;childLayout=stackLayout;horizontal=1;startSize=30;horizontalStack=0;resizeParent=1;resizeParentMax=0;resizeLast=0;collapsible=1;marginBottom=0;whiteSpace=wrap;html=1;fontSize=12;" parent="WIyWlLk6GJQsqaUBKTNV-1" vertex="1" collapsed="1">
          <mxGeometry x="370" y="-2390" width="60" height="30" as="geometry">
            <mxRectangle x="370" y="-2390" width="330" height="250" as="alternateBounds" />
          </mxGeometry>
        </mxCell>
        <mxCell id="4SLkQNdMUHOu_BhptTHL-18" value="- AudioSource[] _audioSources&amp;nbsp;" style="text;strokeColor=none;fillColor=none;align=left;verticalAlign=middle;spacingLeft=4;spacingRight=4;overflow=hidden;points=[[0,0.5],[1,0.5]];portConstraint=eastwest;rotatable=0;whiteSpace=wrap;html=1;" parent="4SLkQNdMUHOu_BhptTHL-14" vertex="1">
          <mxGeometry y="30" width="330" height="30" as="geometry" />
        </mxCell>
        <mxCell id="4SLkQNdMUHOu_BhptTHL-19" value="- Dictionary&amp;lt;string, AudioClip&amp;gt; _audioClips&amp;nbsp;" style="text;strokeColor=none;fillColor=none;align=left;verticalAlign=middle;spacingLeft=4;spacingRight=4;overflow=hidden;points=[[0,0.5],[1,0.5]];portConstraint=eastwest;rotatable=0;whiteSpace=wrap;html=1;" parent="4SLkQNdMUHOu_BhptTHL-14" vertex="1">
          <mxGeometry y="60" width="330" height="30" as="geometry" />
        </mxCell>
        <mxCell id="4SLkQNdMUHOu_BhptTHL-20" value="+ Init() : void" style="text;strokeColor=none;fillColor=none;align=left;verticalAlign=middle;spacingLeft=4;spacingRight=4;overflow=hidden;points=[[0,0.5],[1,0.5]];portConstraint=eastwest;rotatable=0;whiteSpace=wrap;html=1;" parent="4SLkQNdMUHOu_BhptTHL-14" vertex="1">
          <mxGeometry y="90" width="330" height="40" as="geometry" />
        </mxCell>
        <mxCell id="4SLkQNdMUHOu_BhptTHL-21" value="" style="endArrow=none;html=1;rounded=0;exitX=0.009;exitY=-0.01;exitDx=0;exitDy=0;exitPerimeter=0;entryX=0.991;entryY=0.015;entryDx=0;entryDy=0;entryPerimeter=0;" parent="4SLkQNdMUHOu_BhptTHL-14" source="4SLkQNdMUHOu_BhptTHL-20" target="4SLkQNdMUHOu_BhptTHL-20" edge="1">
          <mxGeometry width="50" height="50" relative="1" as="geometry">
            <mxPoint x="110" y="60" as="sourcePoint" />
            <mxPoint x="226" y="120" as="targetPoint" />
            <Array as="points" />
          </mxGeometry>
        </mxCell>
        <mxCell id="4SLkQNdMUHOu_BhptTHL-26" value="+ Play(string, Define.Sound , float) :void&amp;nbsp;" style="text;strokeColor=none;fillColor=none;align=left;verticalAlign=middle;spacingLeft=4;spacingRight=4;overflow=hidden;points=[[0,0.5],[1,0.5]];portConstraint=eastwest;rotatable=0;whiteSpace=wrap;html=1;" parent="4SLkQNdMUHOu_BhptTHL-14" vertex="1">
          <mxGeometry y="130" width="330" height="40" as="geometry" />
        </mxCell>
        <mxCell id="4SLkQNdMUHOu_BhptTHL-36" value="+ Play(AudioClip, Define.Sound type, float) : void&amp;nbsp;" style="text;strokeColor=none;fillColor=none;align=left;verticalAlign=middle;spacingLeft=4;spacingRight=4;overflow=hidden;points=[[0,0.5],[1,0.5]];portConstraint=eastwest;rotatable=0;whiteSpace=wrap;html=1;" parent="4SLkQNdMUHOu_BhptTHL-14" vertex="1">
          <mxGeometry y="170" width="330" height="40" as="geometry" />
        </mxCell>
        <mxCell id="7iNNCjcR42KBHL3_hYyn-1" value="- GetOrAddAudioClip(string, Define.Sound) : AudioClip&amp;nbsp;" style="text;strokeColor=none;fillColor=none;align=left;verticalAlign=middle;spacingLeft=4;spacingRight=4;overflow=hidden;points=[[0,0.5],[1,0.5]];portConstraint=eastwest;rotatable=0;whiteSpace=wrap;html=1;" vertex="1" parent="4SLkQNdMUHOu_BhptTHL-14">
          <mxGeometry y="210" width="330" height="40" as="geometry" />
        </mxCell>
        <mxCell id="4SLkQNdMUHOu_BhptTHL-38" value="PoolManager" style="swimlane;fontStyle=0;childLayout=stackLayout;horizontal=1;startSize=30;horizontalStack=0;resizeParent=1;resizeParentMax=0;resizeLast=0;collapsible=1;marginBottom=0;whiteSpace=wrap;html=1;fontSize=12;" parent="WIyWlLk6GJQsqaUBKTNV-1" vertex="1">
          <mxGeometry x="360" y="-2330" width="370" height="330" as="geometry">
            <mxRectangle x="450" y="-2120" width="60" height="30" as="alternateBounds" />
          </mxGeometry>
        </mxCell>
        <mxCell id="4SLkQNdMUHOu_BhptTHL-39" value="&lt;div&gt;- _pool : new Dictionary&amp;lt;string, Pool&amp;gt;&lt;/div&gt;" style="text;strokeColor=none;fillColor=none;align=left;verticalAlign=middle;spacingLeft=4;spacingRight=4;overflow=hidden;points=[[0,0.5],[1,0.5]];portConstraint=eastwest;rotatable=0;whiteSpace=wrap;html=1;" parent="4SLkQNdMUHOu_BhptTHL-38" vertex="1">
          <mxGeometry y="30" width="370" height="30" as="geometry" />
        </mxCell>
        <mxCell id="4SLkQNdMUHOu_BhptTHL-40" value="- _root : Dictionary&amp;lt;string, Pool&amp;gt;&amp;nbsp;" style="text;strokeColor=none;fillColor=none;align=left;verticalAlign=middle;spacingLeft=4;spacingRight=4;overflow=hidden;points=[[0,0.5],[1,0.5]];portConstraint=eastwest;rotatable=0;whiteSpace=wrap;html=1;" parent="4SLkQNdMUHOu_BhptTHL-38" vertex="1">
          <mxGeometry y="60" width="370" height="30" as="geometry" />
        </mxCell>
        <mxCell id="4SLkQNdMUHOu_BhptTHL-42" value="+ Init() : void" style="text;strokeColor=none;fillColor=none;align=left;verticalAlign=middle;spacingLeft=4;spacingRight=4;overflow=hidden;points=[[0,0.5],[1,0.5]];portConstraint=eastwest;rotatable=0;whiteSpace=wrap;html=1;" parent="4SLkQNdMUHOu_BhptTHL-38" vertex="1">
          <mxGeometry y="90" width="370" height="40" as="geometry" />
        </mxCell>
        <mxCell id="4SLkQNdMUHOu_BhptTHL-43" value="" style="endArrow=none;html=1;rounded=0;exitX=0.009;exitY=-0.01;exitDx=0;exitDy=0;exitPerimeter=0;entryX=0.991;entryY=0.015;entryDx=0;entryDy=0;entryPerimeter=0;" parent="4SLkQNdMUHOu_BhptTHL-38" source="4SLkQNdMUHOu_BhptTHL-42" target="4SLkQNdMUHOu_BhptTHL-42" edge="1">
          <mxGeometry width="50" height="50" relative="1" as="geometry">
            <mxPoint x="110" y="60" as="sourcePoint" />
            <mxPoint x="226" y="120" as="targetPoint" />
            <Array as="points" />
          </mxGeometry>
        </mxCell>
        <mxCell id="4SLkQNdMUHOu_BhptTHL-44" value="+ CreatePool(GameObject original, int count) : void&amp;nbsp;" style="text;strokeColor=none;fillColor=none;align=left;verticalAlign=middle;spacingLeft=4;spacingRight=4;overflow=hidden;points=[[0,0.5],[1,0.5]];portConstraint=eastwest;rotatable=0;whiteSpace=wrap;html=1;" parent="4SLkQNdMUHOu_BhptTHL-38" vertex="1">
          <mxGeometry y="130" width="370" height="40" as="geometry" />
        </mxCell>
        <mxCell id="4SLkQNdMUHOu_BhptTHL-45" value="+ Push(Poolable) : void" style="text;strokeColor=none;fillColor=none;align=left;verticalAlign=middle;spacingLeft=4;spacingRight=4;overflow=hidden;points=[[0,0.5],[1,0.5]];portConstraint=eastwest;rotatable=0;whiteSpace=wrap;html=1;" parent="4SLkQNdMUHOu_BhptTHL-38" vertex="1">
          <mxGeometry y="170" width="370" height="40" as="geometry" />
        </mxCell>
        <mxCell id="7iNNCjcR42KBHL3_hYyn-16" value="+ Pop(GameObject, Transform) : Poolable" style="text;strokeColor=none;fillColor=none;align=left;verticalAlign=middle;spacingLeft=4;spacingRight=4;overflow=hidden;points=[[0,0.5],[1,0.5]];portConstraint=eastwest;rotatable=0;whiteSpace=wrap;html=1;" vertex="1" parent="4SLkQNdMUHOu_BhptTHL-38">
          <mxGeometry y="210" width="370" height="40" as="geometry" />
        </mxCell>
        <mxCell id="7iNNCjcR42KBHL3_hYyn-17" value="+ GetOriginal(string) : GameObject" style="text;strokeColor=none;fillColor=none;align=left;verticalAlign=middle;spacingLeft=4;spacingRight=4;overflow=hidden;points=[[0,0.5],[1,0.5]];portConstraint=eastwest;rotatable=0;whiteSpace=wrap;html=1;" vertex="1" parent="4SLkQNdMUHOu_BhptTHL-38">
          <mxGeometry y="250" width="370" height="40" as="geometry" />
        </mxCell>
        <mxCell id="7iNNCjcR42KBHL3_hYyn-18" value="+ Clear() : void" style="text;strokeColor=none;fillColor=none;align=left;verticalAlign=middle;spacingLeft=4;spacingRight=4;overflow=hidden;points=[[0,0.5],[1,0.5]];portConstraint=eastwest;rotatable=0;whiteSpace=wrap;html=1;" vertex="1" parent="4SLkQNdMUHOu_BhptTHL-38">
          <mxGeometry y="290" width="370" height="40" as="geometry" />
        </mxCell>
        <mxCell id="mGLiB4h3JhUgNFAnYOu--1" value="InputManager" style="swimlane;fontStyle=0;childLayout=stackLayout;horizontal=1;startSize=30;horizontalStack=0;resizeParent=1;resizeParentMax=0;resizeLast=0;collapsible=1;marginBottom=0;whiteSpace=wrap;html=1;fontSize=12;" parent="WIyWlLk6GJQsqaUBKTNV-1" vertex="1" collapsed="1">
          <mxGeometry x="280" y="-2000" width="60" height="30" as="geometry">
            <mxRectangle x="370" y="-2080" width="370" height="210" as="alternateBounds" />
          </mxGeometry>
        </mxCell>
        <mxCell id="mGLiB4h3JhUgNFAnYOu--2" value="&lt;div&gt;bool _pressed&lt;/div&gt;" style="text;strokeColor=none;fillColor=none;align=left;verticalAlign=middle;spacingLeft=4;spacingRight=4;overflow=hidden;points=[[0,0.5],[1,0.5]];portConstraint=eastwest;rotatable=0;whiteSpace=wrap;html=1;" parent="mGLiB4h3JhUgNFAnYOu--1" vertex="1">
          <mxGeometry y="30" width="370" height="30" as="geometry" />
        </mxCell>
        <mxCell id="mGLiB4h3JhUgNFAnYOu--12" value="&lt;div&gt;float _pressedTime&lt;/div&gt;" style="text;strokeColor=none;fillColor=none;align=left;verticalAlign=middle;spacingLeft=4;spacingRight=4;overflow=hidden;points=[[0,0.5],[1,0.5]];portConstraint=eastwest;rotatable=0;whiteSpace=wrap;html=1;" parent="mGLiB4h3JhUgNFAnYOu--1" vertex="1">
          <mxGeometry y="60" width="370" height="30" as="geometry" />
        </mxCell>
        <mxCell id="mGLiB4h3JhUgNFAnYOu--5" value="Action MouseAction" style="text;strokeColor=none;fillColor=none;align=left;verticalAlign=middle;spacingLeft=4;spacingRight=4;overflow=hidden;points=[[0,0.5],[1,0.5]];portConstraint=eastwest;rotatable=0;whiteSpace=wrap;html=1;" parent="mGLiB4h3JhUgNFAnYOu--1" vertex="1">
          <mxGeometry y="90" width="370" height="40" as="geometry" />
        </mxCell>
        <mxCell id="mGLiB4h3JhUgNFAnYOu--6" value="" style="endArrow=none;html=1;rounded=0;exitX=0.009;exitY=-0.01;exitDx=0;exitDy=0;exitPerimeter=0;entryX=0.991;entryY=0.015;entryDx=0;entryDy=0;entryPerimeter=0;" parent="mGLiB4h3JhUgNFAnYOu--1" source="mGLiB4h3JhUgNFAnYOu--5" target="mGLiB4h3JhUgNFAnYOu--5" edge="1">
          <mxGeometry width="50" height="50" relative="1" as="geometry">
            <mxPoint x="110" y="60" as="sourcePoint" />
            <mxPoint x="226" y="120" as="targetPoint" />
            <Array as="points" />
          </mxGeometry>
        </mxCell>
        <mxCell id="mGLiB4h3JhUgNFAnYOu--7" value="void OnUpdate()" style="text;strokeColor=none;fillColor=none;align=left;verticalAlign=middle;spacingLeft=4;spacingRight=4;overflow=hidden;points=[[0,0.5],[1,0.5]];portConstraint=eastwest;rotatable=0;whiteSpace=wrap;html=1;" parent="mGLiB4h3JhUgNFAnYOu--1" vertex="1">
          <mxGeometry y="130" width="370" height="40" as="geometry" />
        </mxCell>
        <mxCell id="mGLiB4h3JhUgNFAnYOu--8" value="void Clear()" style="text;strokeColor=none;fillColor=none;align=left;verticalAlign=middle;spacingLeft=4;spacingRight=4;overflow=hidden;points=[[0,0.5],[1,0.5]];portConstraint=eastwest;rotatable=0;whiteSpace=wrap;html=1;" parent="mGLiB4h3JhUgNFAnYOu--1" vertex="1">
          <mxGeometry y="170" width="370" height="40" as="geometry" />
        </mxCell>
        <mxCell id="mGLiB4h3JhUgNFAnYOu--14" value="DBManager" style="swimlane;fontStyle=0;childLayout=stackLayout;horizontal=1;startSize=30;horizontalStack=0;resizeParent=1;resizeParentMax=0;resizeLast=0;collapsible=1;marginBottom=0;whiteSpace=wrap;html=1;fontSize=12;" parent="WIyWlLk6GJQsqaUBKTNV-1" vertex="1" collapsed="1">
          <mxGeometry x="384" y="-2374" width="60" height="30" as="geometry">
            <mxRectangle x="384" y="-2374" width="370" height="100" as="alternateBounds" />
          </mxGeometry>
        </mxCell>
        <mxCell id="mGLiB4h3JhUgNFAnYOu--15" value="&lt;div&gt;DBManager이 Client단에 있는게 맞나? 의논이 필요&lt;/div&gt;" style="text;strokeColor=none;fillColor=none;align=left;verticalAlign=middle;spacingLeft=4;spacingRight=4;overflow=hidden;points=[[0,0.5],[1,0.5]];portConstraint=eastwest;rotatable=0;whiteSpace=wrap;html=1;" parent="mGLiB4h3JhUgNFAnYOu--14" vertex="1">
          <mxGeometry y="30" width="370" height="30" as="geometry" />
        </mxCell>
        <mxCell id="mGLiB4h3JhUgNFAnYOu--18" value="+ Init() : AudioClip&amp;nbsp;" style="text;strokeColor=none;fillColor=none;align=left;verticalAlign=middle;spacingLeft=4;spacingRight=4;overflow=hidden;points=[[0,0.5],[1,0.5]];portConstraint=eastwest;rotatable=0;whiteSpace=wrap;html=1;" parent="mGLiB4h3JhUgNFAnYOu--14" vertex="1">
          <mxGeometry y="60" width="370" height="40" as="geometry" />
        </mxCell>
        <mxCell id="mGLiB4h3JhUgNFAnYOu--19" value="" style="endArrow=none;html=1;rounded=0;exitX=0.009;exitY=-0.01;exitDx=0;exitDy=0;exitPerimeter=0;entryX=0.991;entryY=0.015;entryDx=0;entryDy=0;entryPerimeter=0;" parent="mGLiB4h3JhUgNFAnYOu--14" source="mGLiB4h3JhUgNFAnYOu--18" target="mGLiB4h3JhUgNFAnYOu--18" edge="1">
          <mxGeometry width="50" height="50" relative="1" as="geometry">
            <mxPoint x="110" y="60" as="sourcePoint" />
            <mxPoint x="226" y="120" as="targetPoint" />
            <Array as="points" />
          </mxGeometry>
        </mxCell>
        <mxCell id="mGLiB4h3JhUgNFAnYOu--23" value="UIManager" style="swimlane;fontStyle=0;childLayout=stackLayout;horizontal=1;startSize=30;horizontalStack=0;resizeParent=1;resizeParentMax=0;resizeLast=0;collapsible=1;marginBottom=0;whiteSpace=wrap;html=1;fontSize=12;" parent="WIyWlLk6GJQsqaUBKTNV-1" vertex="1">
          <mxGeometry x="340" y="-1970" width="530" height="530" as="geometry">
            <mxRectangle x="384" y="-2050" width="60" height="30" as="alternateBounds" />
          </mxGeometry>
        </mxCell>
        <mxCell id="mGLiB4h3JhUgNFAnYOu--24" value="&lt;div&gt;Stack&amp;lt;UI_Popup&amp;gt; _popupStack&lt;br&gt;&lt;/div&gt;" style="text;strokeColor=none;fillColor=none;align=left;verticalAlign=middle;spacingLeft=4;spacingRight=4;overflow=hidden;points=[[0,0.5],[1,0.5]];portConstraint=eastwest;rotatable=0;whiteSpace=wrap;html=1;" parent="mGLiB4h3JhUgNFAnYOu--23" vertex="1">
          <mxGeometry y="30" width="530" height="30" as="geometry" />
        </mxCell>
        <mxCell id="mGLiB4h3JhUgNFAnYOu--25" value="UI_Scene _sceneUI" style="text;strokeColor=none;fillColor=none;align=left;verticalAlign=middle;spacingLeft=4;spacingRight=4;overflow=hidden;points=[[0,0.5],[1,0.5]];portConstraint=eastwest;rotatable=0;whiteSpace=wrap;html=1;" parent="mGLiB4h3JhUgNFAnYOu--23" vertex="1">
          <mxGeometry y="60" width="530" height="30" as="geometry" />
        </mxCell>
        <mxCell id="mGLiB4h3JhUgNFAnYOu--27" value="void Init()" style="text;strokeColor=none;fillColor=none;align=left;verticalAlign=middle;spacingLeft=4;spacingRight=4;overflow=hidden;points=[[0,0.5],[1,0.5]];portConstraint=eastwest;rotatable=0;whiteSpace=wrap;html=1;" parent="mGLiB4h3JhUgNFAnYOu--23" vertex="1">
          <mxGeometry y="90" width="530" height="40" as="geometry" />
        </mxCell>
        <mxCell id="mGLiB4h3JhUgNFAnYOu--28" value="" style="endArrow=none;html=1;rounded=0;exitX=0.009;exitY=-0.01;exitDx=0;exitDy=0;exitPerimeter=0;entryX=0.991;entryY=0.015;entryDx=0;entryDy=0;entryPerimeter=0;" parent="mGLiB4h3JhUgNFAnYOu--23" source="mGLiB4h3JhUgNFAnYOu--27" target="mGLiB4h3JhUgNFAnYOu--27" edge="1">
          <mxGeometry width="50" height="50" relative="1" as="geometry">
            <mxPoint x="110" y="60" as="sourcePoint" />
            <mxPoint x="226" y="120" as="targetPoint" />
            <Array as="points" />
          </mxGeometry>
        </mxCell>
        <mxCell id="mGLiB4h3JhUgNFAnYOu--29" value="GameObject Root (get,set)" style="text;strokeColor=none;fillColor=none;align=left;verticalAlign=middle;spacingLeft=4;spacingRight=4;overflow=hidden;points=[[0,0.5],[1,0.5]];portConstraint=eastwest;rotatable=0;whiteSpace=wrap;html=1;" parent="mGLiB4h3JhUgNFAnYOu--23" vertex="1">
          <mxGeometry y="130" width="530" height="40" as="geometry" />
        </mxCell>
        <mxCell id="mGLiB4h3JhUgNFAnYOu--30" value="&amp;nbsp;void SetCanvas(GameObject go, bool sort = true)" style="text;strokeColor=none;fillColor=none;align=left;verticalAlign=middle;spacingLeft=4;spacingRight=4;overflow=hidden;points=[[0,0.5],[1,0.5]];portConstraint=eastwest;rotatable=0;whiteSpace=wrap;html=1;" parent="mGLiB4h3JhUgNFAnYOu--23" vertex="1">
          <mxGeometry y="170" width="530" height="40" as="geometry" />
        </mxCell>
        <mxCell id="mGLiB4h3JhUgNFAnYOu--31" value="&lt;div&gt;T MakeWorldSpaceUI&amp;lt;T&amp;gt;(Transform parent = null, string name = null) where T : UI_Base&lt;/div&gt;&lt;div&gt; &lt;/div&gt;" style="text;strokeColor=none;fillColor=none;align=left;verticalAlign=middle;spacingLeft=4;spacingRight=4;overflow=hidden;points=[[0,0.5],[1,0.5]];portConstraint=eastwest;rotatable=0;whiteSpace=wrap;html=1;" parent="mGLiB4h3JhUgNFAnYOu--23" vertex="1">
          <mxGeometry y="210" width="530" height="40" as="geometry" />
        </mxCell>
        <mxCell id="mGLiB4h3JhUgNFAnYOu--32" value="&lt;div&gt;T MakeSubItem&amp;lt;T&amp;gt;(Transform parent = null, string name = null) where T : UI_Base&lt;/div&gt;&lt;div&gt; &lt;/div&gt;" style="text;strokeColor=none;fillColor=none;align=left;verticalAlign=middle;spacingLeft=4;spacingRight=4;overflow=hidden;points=[[0,0.5],[1,0.5]];portConstraint=eastwest;rotatable=0;whiteSpace=wrap;html=1;" parent="mGLiB4h3JhUgNFAnYOu--23" vertex="1">
          <mxGeometry y="250" width="530" height="40" as="geometry" />
        </mxCell>
        <mxCell id="mGLiB4h3JhUgNFAnYOu--33" value="&lt;div&gt;T ShowSceneUI&amp;lt;T&amp;gt;(string name = null) where T : UI_Scene&lt;/div&gt;&lt;div&gt; &lt;/div&gt;" style="text;strokeColor=none;fillColor=none;align=left;verticalAlign=middle;spacingLeft=4;spacingRight=4;overflow=hidden;points=[[0,0.5],[1,0.5]];portConstraint=eastwest;rotatable=0;whiteSpace=wrap;html=1;" parent="mGLiB4h3JhUgNFAnYOu--23" vertex="1">
          <mxGeometry y="290" width="530" height="40" as="geometry" />
        </mxCell>
        <mxCell id="mGLiB4h3JhUgNFAnYOu--34" value="&lt;div&gt;T ShowPopupUI&amp;lt;T&amp;gt;(string name = null) where T : UI_Popup&lt;/div&gt;&lt;div&gt; &lt;/div&gt;" style="text;strokeColor=none;fillColor=none;align=left;verticalAlign=middle;spacingLeft=4;spacingRight=4;overflow=hidden;points=[[0,0.5],[1,0.5]];portConstraint=eastwest;rotatable=0;whiteSpace=wrap;html=1;" parent="mGLiB4h3JhUgNFAnYOu--23" vertex="1">
          <mxGeometry y="330" width="530" height="40" as="geometry" />
        </mxCell>
        <mxCell id="mGLiB4h3JhUgNFAnYOu--35" value="&lt;div&gt;void ClosePopupUI(UI_Popup popup)&lt;/div&gt;&lt;div&gt; &lt;/div&gt;" style="text;strokeColor=none;fillColor=none;align=left;verticalAlign=middle;spacingLeft=4;spacingRight=4;overflow=hidden;points=[[0,0.5],[1,0.5]];portConstraint=eastwest;rotatable=0;whiteSpace=wrap;html=1;" parent="mGLiB4h3JhUgNFAnYOu--23" vertex="1">
          <mxGeometry y="370" width="530" height="40" as="geometry" />
        </mxCell>
        <mxCell id="mGLiB4h3JhUgNFAnYOu--36" value="&lt;div&gt;void ClosePopupUI()&lt;/div&gt;&lt;div&gt; &lt;/div&gt;" style="text;strokeColor=none;fillColor=none;align=left;verticalAlign=middle;spacingLeft=4;spacingRight=4;overflow=hidden;points=[[0,0.5],[1,0.5]];portConstraint=eastwest;rotatable=0;whiteSpace=wrap;html=1;" parent="mGLiB4h3JhUgNFAnYOu--23" vertex="1">
          <mxGeometry y="410" width="530" height="40" as="geometry" />
        </mxCell>
        <mxCell id="mGLiB4h3JhUgNFAnYOu--37" value="&lt;div&gt;void CloseAllPopupUI()&lt;/div&gt;&lt;div&gt; &lt;/div&gt;" style="text;strokeColor=none;fillColor=none;align=left;verticalAlign=middle;spacingLeft=4;spacingRight=4;overflow=hidden;points=[[0,0.5],[1,0.5]];portConstraint=eastwest;rotatable=0;whiteSpace=wrap;html=1;" parent="mGLiB4h3JhUgNFAnYOu--23" vertex="1">
          <mxGeometry y="450" width="530" height="40" as="geometry" />
        </mxCell>
        <mxCell id="mGLiB4h3JhUgNFAnYOu--38" value="&lt;div&gt;void Clear()&lt;/div&gt;&lt;div&gt; &lt;/div&gt;" style="text;strokeColor=none;fillColor=none;align=left;verticalAlign=middle;spacingLeft=4;spacingRight=4;overflow=hidden;points=[[0,0.5],[1,0.5]];portConstraint=eastwest;rotatable=0;whiteSpace=wrap;html=1;" parent="mGLiB4h3JhUgNFAnYOu--23" vertex="1">
          <mxGeometry y="490" width="530" height="40" as="geometry" />
        </mxCell>
        <mxCell id="4SLkQNdMUHOu_BhptTHL-46" value="Pool" style="swimlane;fontStyle=0;childLayout=stackLayout;horizontal=1;startSize=30;horizontalStack=0;resizeParent=1;resizeParentMax=0;resizeLast=0;collapsible=1;marginBottom=0;whiteSpace=wrap;html=1;fontSize=12;" parent="WIyWlLk6GJQsqaUBKTNV-1" vertex="1">
          <mxGeometry x="910" y="-2310" width="370" height="220" as="geometry">
            <mxRectangle x="910" y="-2310" width="60" height="30" as="alternateBounds" />
          </mxGeometry>
        </mxCell>
        <mxCell id="4SLkQNdMUHOu_BhptTHL-47" value="- poolStack : Stack&amp;lt;Poolable&amp;gt;&lt;div&gt;&lt;/div&gt;" style="text;strokeColor=none;fillColor=none;align=left;verticalAlign=middle;spacingLeft=4;spacingRight=4;overflow=hidden;points=[[0,0.5],[1,0.5]];portConstraint=eastwest;rotatable=0;whiteSpace=wrap;html=1;" parent="4SLkQNdMUHOu_BhptTHL-46" vertex="1">
          <mxGeometry y="30" width="370" height="30" as="geometry" />
        </mxCell>
        <mxCell id="4SLkQNdMUHOu_BhptTHL-50" value="# init() : void" style="text;strokeColor=none;fillColor=none;align=left;verticalAlign=middle;spacingLeft=4;spacingRight=4;overflow=hidden;points=[[0,0.5],[1,0.5]];portConstraint=eastwest;rotatable=0;whiteSpace=wrap;html=1;" parent="4SLkQNdMUHOu_BhptTHL-46" vertex="1">
          <mxGeometry y="60" width="370" height="40" as="geometry" />
        </mxCell>
        <mxCell id="4SLkQNdMUHOu_BhptTHL-51" value="" style="endArrow=none;html=1;rounded=0;exitX=0.009;exitY=-0.01;exitDx=0;exitDy=0;exitPerimeter=0;entryX=0.991;entryY=0.015;entryDx=0;entryDy=0;entryPerimeter=0;" parent="4SLkQNdMUHOu_BhptTHL-46" source="4SLkQNdMUHOu_BhptTHL-50" target="4SLkQNdMUHOu_BhptTHL-50" edge="1">
          <mxGeometry width="50" height="50" relative="1" as="geometry">
            <mxPoint x="110" y="60" as="sourcePoint" />
            <mxPoint x="226" y="120" as="targetPoint" />
            <Array as="points" />
          </mxGeometry>
        </mxCell>
        <mxCell id="4SLkQNdMUHOu_BhptTHL-52" value="- Create() : Poolable" style="text;strokeColor=none;fillColor=none;align=left;verticalAlign=middle;spacingLeft=4;spacingRight=4;overflow=hidden;points=[[0,0.5],[1,0.5]];portConstraint=eastwest;rotatable=0;whiteSpace=wrap;html=1;" parent="4SLkQNdMUHOu_BhptTHL-46" vertex="1">
          <mxGeometry y="100" width="370" height="40" as="geometry" />
        </mxCell>
        <mxCell id="4SLkQNdMUHOu_BhptTHL-53" value="# Push(Poolable) : void" style="text;strokeColor=none;fillColor=none;align=left;verticalAlign=middle;spacingLeft=4;spacingRight=4;overflow=hidden;points=[[0,0.5],[1,0.5]];portConstraint=eastwest;rotatable=0;whiteSpace=wrap;html=1;" parent="4SLkQNdMUHOu_BhptTHL-46" vertex="1">
          <mxGeometry y="140" width="370" height="40" as="geometry" />
        </mxCell>
        <mxCell id="7iNNCjcR42KBHL3_hYyn-22" value="# Pop(Transform) : Poolable" style="text;strokeColor=none;fillColor=none;align=left;verticalAlign=middle;spacingLeft=4;spacingRight=4;overflow=hidden;points=[[0,0.5],[1,0.5]];portConstraint=eastwest;rotatable=0;whiteSpace=wrap;html=1;" vertex="1" parent="4SLkQNdMUHOu_BhptTHL-46">
          <mxGeometry y="180" width="370" height="40" as="geometry" />
        </mxCell>
        <mxCell id="mGLiB4h3JhUgNFAnYOu--64" value="Classname" style="swimlane;fontStyle=1;align=center;verticalAlign=top;childLayout=stackLayout;horizontal=1;startSize=26;horizontalStack=0;resizeParent=1;resizeParentMax=0;resizeLast=0;collapsible=1;marginBottom=0;whiteSpace=wrap;html=1;" parent="WIyWlLk6GJQsqaUBKTNV-1" vertex="1">
          <mxGeometry x="10" y="-2360" width="160" height="86" as="geometry" />
        </mxCell>
        <mxCell id="mGLiB4h3JhUgNFAnYOu--65" value="+ field: type" style="text;strokeColor=none;fillColor=none;align=left;verticalAlign=top;spacingLeft=4;spacingRight=4;overflow=hidden;rotatable=0;points=[[0,0.5],[1,0.5]];portConstraint=eastwest;whiteSpace=wrap;html=1;" parent="mGLiB4h3JhUgNFAnYOu--64" vertex="1">
          <mxGeometry y="26" width="160" height="26" as="geometry" />
        </mxCell>
        <mxCell id="mGLiB4h3JhUgNFAnYOu--66" value="" style="line;strokeWidth=1;fillColor=none;align=left;verticalAlign=middle;spacingTop=-1;spacingLeft=3;spacingRight=3;rotatable=0;labelPosition=right;points=[];portConstraint=eastwest;strokeColor=inherit;" parent="mGLiB4h3JhUgNFAnYOu--64" vertex="1">
          <mxGeometry y="52" width="160" height="8" as="geometry" />
        </mxCell>
        <mxCell id="mGLiB4h3JhUgNFAnYOu--67" value="+ method(type): type" style="text;strokeColor=none;fillColor=none;align=left;verticalAlign=top;spacingLeft=4;spacingRight=4;overflow=hidden;rotatable=0;points=[[0,0.5],[1,0.5]];portConstraint=eastwest;whiteSpace=wrap;html=1;" parent="mGLiB4h3JhUgNFAnYOu--64" vertex="1">
          <mxGeometry y="60" width="160" height="26" as="geometry" />
        </mxCell>
        <mxCell id="7iNNCjcR42KBHL3_hYyn-0" value="https://www.nextree.co.kr/p6753/" style="text;strokeColor=none;fillColor=none;align=left;verticalAlign=middle;spacingLeft=4;spacingRight=4;overflow=hidden;points=[[0,0.5],[1,0.5]];portConstraint=eastwest;rotatable=0;whiteSpace=wrap;html=1;" vertex="1" parent="WIyWlLk6GJQsqaUBKTNV-1">
          <mxGeometry x="50" y="-2660" width="310" height="40" as="geometry" />
        </mxCell>
        <mxCell id="7iNNCjcR42KBHL3_hYyn-11" value="" style="endArrow=diamondThin;endFill=1;endSize=24;html=1;rounded=0;entryX=1;entryY=0.5;entryDx=0;entryDy=0;exitX=-0.011;exitY=0.034;exitDx=0;exitDy=0;exitPerimeter=0;" edge="1" parent="WIyWlLk6GJQsqaUBKTNV-1" source="4SLkQNdMUHOu_BhptTHL-14" target="4SLkQNdMUHOu_BhptTHL-7">
          <mxGeometry width="160" relative="1" as="geometry">
            <mxPoint x="350" y="-2160" as="sourcePoint" />
            <mxPoint x="510" y="-2160" as="targetPoint" />
          </mxGeometry>
        </mxCell>
        <mxCell id="7iNNCjcR42KBHL3_hYyn-12" value="" style="endArrow=diamondThin;endFill=1;endSize=24;html=1;rounded=0;entryX=1;entryY=0.5;entryDx=0;entryDy=0;exitX=0;exitY=0.5;exitDx=0;exitDy=0;" edge="1" parent="WIyWlLk6GJQsqaUBKTNV-1" source="mGLiB4h3JhUgNFAnYOu--14" target="4SLkQNdMUHOu_BhptTHL-11">
          <mxGeometry width="160" relative="1" as="geometry">
            <mxPoint x="376" y="-2371" as="sourcePoint" />
            <mxPoint x="250" y="-2205" as="targetPoint" />
          </mxGeometry>
        </mxCell>
        <mxCell id="7iNNCjcR42KBHL3_hYyn-13" value="" style="endArrow=diamondThin;endFill=1;endSize=24;html=1;rounded=0;entryX=1;entryY=0.5;entryDx=0;entryDy=0;exitX=0;exitY=0.25;exitDx=0;exitDy=0;" edge="1" parent="WIyWlLk6GJQsqaUBKTNV-1" source="4SLkQNdMUHOu_BhptTHL-38" target="4SLkQNdMUHOu_BhptTHL-12">
          <mxGeometry width="160" relative="1" as="geometry">
            <mxPoint x="386" y="-2361" as="sourcePoint" />
            <mxPoint x="260" y="-2195" as="targetPoint" />
          </mxGeometry>
        </mxCell>
        <mxCell id="7iNNCjcR42KBHL3_hYyn-14" value="" style="endArrow=diamondThin;endFill=1;endSize=24;html=1;rounded=0;entryX=1;entryY=0.5;entryDx=0;entryDy=0;exitX=0;exitY=0.25;exitDx=0;exitDy=0;" edge="1" parent="WIyWlLk6GJQsqaUBKTNV-1" source="mGLiB4h3JhUgNFAnYOu--1" target="4SLkQNdMUHOu_BhptTHL-13">
          <mxGeometry width="160" relative="1" as="geometry">
            <mxPoint x="396" y="-2351" as="sourcePoint" />
            <mxPoint x="270" y="-2185" as="targetPoint" />
          </mxGeometry>
        </mxCell>
        <mxCell id="7iNNCjcR42KBHL3_hYyn-15" value="" style="endArrow=diamondThin;endFill=1;endSize=24;html=1;rounded=0;entryX=1;entryY=0.5;entryDx=0;entryDy=0;" edge="1" parent="WIyWlLk6GJQsqaUBKTNV-1" target="mGLiB4h3JhUgNFAnYOu--10">
          <mxGeometry width="160" relative="1" as="geometry">
            <mxPoint x="380" y="-2030" as="sourcePoint" />
            <mxPoint x="280" y="-2175" as="targetPoint" />
          </mxGeometry>
        </mxCell>
        <mxCell id="7iNNCjcR42KBHL3_hYyn-19" value="" style="endArrow=none;html=1;edgeStyle=orthogonalEdgeStyle;rounded=0;exitX=0;exitY=0;exitDx=0;exitDy=0;entryX=1;entryY=0;entryDx=0;entryDy=0;" edge="1" parent="WIyWlLk6GJQsqaUBKTNV-1" source="4SLkQNdMUHOu_BhptTHL-46" target="4SLkQNdMUHOu_BhptTHL-38">
          <mxGeometry relative="1" as="geometry">
            <mxPoint x="790" y="-2170" as="sourcePoint" />
            <mxPoint x="850" y="-2280" as="targetPoint" />
            <Array as="points">
              <mxPoint x="840" y="-2330" />
            </Array>
          </mxGeometry>
        </mxCell>
        <mxCell id="7iNNCjcR42KBHL3_hYyn-20" value="parent" style="edgeLabel;resizable=0;html=1;align=left;verticalAlign=bottom;" connectable="0" vertex="1" parent="7iNNCjcR42KBHL3_hYyn-19">
          <mxGeometry x="-1" relative="1" as="geometry" />
        </mxCell>
        <mxCell id="7iNNCjcR42KBHL3_hYyn-21" value="child" style="edgeLabel;resizable=0;html=1;align=right;verticalAlign=bottom;" connectable="0" vertex="1" parent="7iNNCjcR42KBHL3_hYyn-19">
          <mxGeometry x="1" relative="1" as="geometry" />
        </mxCell>
      </root>
    </mxGraphModel>
  </diagram>
</mxfile>
